<?xml version="1.0" encoding="UTF-8"?>
<svg id="Layer_2" data-name="Layer 2" xmlns="http://www.w3.org/2000/svg" viewBox="0 0 812.6 150.35">
  <g id="Layer_1-2" data-name="Layer 1">
    <path d="M793.71,47.4c-17.46-12.73-40.34-10.88-56.18,4.05-13.98-13.31-33.59-16.13-50.29-7.59-15.46,7.91-24.55,23.52-24.72,40.97l.13,53.64c.02,6.58,6.37,11.34,12.1,11.22,5.15-.11,11.6-4.51,11.66-10.88l.47-56.71c.09-11.34,10.32-20.14,21.36-19.2,9.66.82,17.2,9.15,17.26,19.01l.38,57.24c.04,6.27,6.79,10.67,11.84,10.61,5.38-.07,11.62-4.59,11.67-10.95l.51-58.13c.08-9.75,8.4-17.2,17.4-17.77,10.83-.69,20.85,7.9,20.96,19.04l.58,57.53c.06,6.17,6.97,10.35,11.93,10.27,5.24-.09,11.6-4.67,11.62-10.96l.22-54.9c-.61-14.73-7.13-27.9-18.9-36.48Z"/>
    <path d="M365.7.07c-5.74-.23-12.18,4.32-12.24,11l-.32,35.31c-20.47-14.95-46.5-15.72-67.11-1.79-15.85,10.71-26,27.69-26.05,47.79-.05,22.51,13.13,41.68,31.1,51.08,19.92,10.41,43.66,8.83,61.31-4.22,14.86-10.98,24.69-27.74,24.72-46.37l.14-80.97c.01-6.83-5.46-11.58-11.55-11.83ZM318.31,126.52c-18.8,0-34.04-15.24-34.04-34.04s15.24-34.04,34.04-34.04,34.04,15.24,34.04,34.04-15.24,34.04-34.04,34.04Z"/>
    <path d="M95.45,47.67c-20.22-16.35-48.92-17.83-71.36-1.22l-.19-35.39C23.86,4.37,17.48-.18,11.75,0,5.61.2,0,5.04,0,11.9l.07,79.96c.02,18.45,8.8,34.97,23.29,46.23,17.27,13.41,40.39,16.15,61.01,6.33,17.47-8.33,31.03-26.41,32.64-48.08,1.46-19.68-7.67-37.44-21.56-48.66ZM58.82,126.56c-18.82,0-34.08-15.26-34.08-34.08s15.26-34.08,34.08-34.08,34.08,15.26,34.08,34.08-15.26,34.08-34.08,34.08Z"/>
    <path d="M188.21,34.72c-31.93,0-57.81,25.88-57.81,57.81s25.88,57.81,57.81,57.81,57.81-25.88,57.81-57.81-25.88-57.81-57.81-57.81ZM188.14,126.49c-18.77,0-33.99-15.22-33.99-33.99s15.22-33.99,33.99-33.99,33.99,15.22,33.99,33.99-15.22,33.99-33.99,33.99Z"/>
    <path d="M623.92,38.85c-6.5.15-11.55,5.15-11.71,12.54-.32,15.02.6,29.04-.47,43.34-1.4,18.9-18.05,32.36-36,31.75-17.56-.59-33.26-15.09-33.36-33.54l-.24-42.07c-.04-7.13-5.87-12.36-12.37-11.99-6.05.35-11.43,5.27-11.39,12.06l.22,43.93c.16,31.67,28.3,55.72,59.07,55.39,30.67-.33,56.41-23.99,58.21-55.62.83-14.62.19-28.97.25-43.77.03-7.12-6.11-12.17-12.22-12.03Z"/>
    <path d="M475.93.08c-6.78.56-11.19,5.69-11.18,12.88l.04,124.84c0,7.06,6.18,11.8,12.04,11.78,6.1-.02,11.95-4.61,11.95-12.26V11.56c.01-7.25-6.94-11.97-12.85-11.48Z"/>
    <path d="M420.94,46.14c-6.45.48-11.31,5.38-11.31,12.37l.07,79.32c0,6.82,5.94,11.63,12.01,11.75,5.38.1,12.04-4.32,12.04-11.5V57.84c.01-7.38-6.6-12.15-12.82-11.69Z"/>
    <path d="M421.79,4.88c-6.82,0-12.35,5.53-12.35,12.35s5.53,12.35,12.35,12.35,12.35-5.53,12.35-12.35-5.53-12.35-12.35-12.35Z"/>
  </g>
</svg>