<svg width="55" height="55" fill="none" xmlns="http://www.w3.org/2000/svg"><path fill-rule="evenodd" clip-rule="evenodd" d="M27.5 0C42.688 0 55 12.312 55 27.5S42.688 55 27.5 55 0 42.688 0 27.5 12.312 0 27.5 0Zm.985 9.153c10.126.48 17.946 9.077 17.467 19.203-.48 10.126-9.077 17.946-19.203 17.466-8.503-.402-15.38-6.53-17.081-14.48-.674-2.76-.989-6.131-.818-9.75.433-9.137 3.799-16.4 7.517-16.225 1.853.088 3.444 2.006 4.52 5.04a18.292 18.292 0 0 1 7.598-1.254Zm-.561 11.863a6.48 6.48 0 1 1-.613 12.944 6.48 6.48 0 0 1 .613-12.944Z" fill="#222"/></svg>